<svg version="1.1" id="Layer_1" xmlns="http://www.w3.org/2000/svg" xmlns:xlink="http://www.w3.org/1999/xlink" x="0px" y="0px"
	 width="100%" viewBox="0 0 256 256" enable-background="new 0 0 256 256" xml:space="preserve">
<path fill="#000000" opacity="1.000000" stroke="none" 
	d="
M158.048767,211.334534 
	C144.463379,212.566635 131.306793,212.552612 118.163795,212.242386 
	C101.039795,211.838165 83.975990,210.463959 67.096779,207.429657 
	C60.813240,206.300110 58.243080,202.953659 58.791031,196.519684 
	C62.766449,149.841171 67.873589,103.326294 79.839745,57.860699 
	C80.540436,55.198433 80.865913,52.037956 84.426750,51.399597 
	C87.934898,50.770683 89.392502,53.484169 91.039879,55.756035 
	C94.558311,60.608253 98.121910,65.431572 101.493958,70.384544 
	C103.319580,73.066078 105.131378,74.033920 108.548843,72.898064 
	C122.231651,68.350342 136.058533,68.623695 149.743973,72.927658 
	C153.106079,73.985008 154.963043,73.253250 156.705551,70.345428 
	C159.784485,65.207382 163.170181,60.253788 166.393585,55.201382 
	C167.697021,53.158382 169.086258,51.384686 171.898865,51.679371 
	C174.988068,52.003048 175.882004,54.266560 176.616837,56.754818 
	C181.752335,74.144524 185.151031,91.922195 188.247849,109.752220 
	C191.968185,131.172333 194.692886,152.739914 197.116028,174.341476 
	C197.967270,181.929901 198.568787,189.548615 199.160263,197.163132 
	C199.583298,202.609177 196.740097,206.277908 191.143829,207.388794 
	C180.373291,209.526794 169.426315,210.292267 158.048767,211.334534 
M151.855118,202.103699 
	C163.328293,201.608215 174.720856,200.332336 186.095078,198.778961 
	C188.927902,198.392075 189.826065,197.154617 189.566223,194.521378 
	C188.864517,187.410736 188.337830,180.280945 187.526855,173.183304 
	C184.264328,144.629791 180.400940,116.160416 174.591888,87.997467 
	C173.279984,81.637207 172.256180,75.145958 169.485184,67.950272 
	C166.241898,73.056206 163.427734,77.140800 160.988586,81.438255 
	C159.107285,84.752869 157.026428,85.753227 153.305435,84.194023 
	C137.345139,77.506187 121.273529,77.292809 105.305199,84.194824 
	C102.082855,85.587624 100.124916,84.892006 98.221642,82.042145 
	C95.024033,77.254211 91.511169,72.676819 88.092178,67.957352 
	C86.424271,69.138290 86.487900,70.525528 86.176689,71.789330 
	C76.288506,111.945786 72.344032,152.965775 68.377731,193.984039 
	C68.091919,196.939758 68.841690,198.416809 72.250275,198.875000 
	C83.134224,200.338043 94.040604,201.368759 104.997070,202.079071 
	C120.312111,203.071945 135.616547,202.884857 151.855118,202.103699 
z"/>
<path fill="#000000" opacity="1.000000" stroke="none" 
	d="
M84.317581,143.865356 
	C91.076988,143.866074 97.370720,143.858521 103.664337,143.880997 
	C106.603165,143.891495 109.879303,144.114288 109.754173,147.955460 
	C109.639610,151.472061 106.604828,151.505280 103.770569,151.445511 
	C97.313583,151.309296 90.852913,151.349670 84.393776,151.312241 
	C81.558098,151.295822 78.114349,151.606064 78.005547,147.669388 
	C77.905724,144.057190 81.176643,144.061966 84.317581,143.865356 
z"/>
<path fill="#000000" opacity="1.000000" stroke="none" 
	d="
M159.086380,143.866669 
	C164.544708,143.874329 169.516693,143.846725 174.486969,143.925568 
	C177.100693,143.967026 179.902267,144.500549 179.970230,147.673615 
	C180.041275,150.990082 177.238419,151.322540 174.593964,151.325668 
	C167.799759,151.333725 161.005463,151.335098 154.211380,151.370895 
	C151.414154,151.385635 148.331970,151.185730 148.280960,147.691635 
	C148.229416,144.160492 151.383591,143.958160 154.125473,143.884171 
	C155.615738,143.843948 157.107971,143.876099 159.086380,143.866669 
z"/>
<path fill="#000000" opacity="1.000000" stroke="none" 
	d="
M173.248779,131.084564 
	C176.539780,130.484222 179.443619,130.691345 179.713913,134.214523 
	C179.959915,137.421082 177.076263,137.877686 174.514816,138.328079 
	C167.827545,139.503937 161.163101,140.809128 154.482025,142.021149 
	C151.887817,142.491760 149.194000,142.626282 148.664185,139.205933 
	C148.149109,135.880890 150.570587,135.096085 153.266510,134.644653 
	C159.799393,133.550766 166.314117,132.348419 173.248779,131.084564 
z"/>
<path fill="#000000" opacity="1.000000" stroke="none" 
	d="
M87.926086,156.703644 
	C93.543610,155.702606 98.732468,154.722519 103.929382,153.787186 
	C106.406059,153.341431 108.793396,153.525757 109.437729,156.492249 
	C110.095818,159.522064 107.905319,160.650360 105.468216,161.103683 
	C98.001114,162.492599 90.515701,163.785614 83.026794,165.053284 
	C80.561928,165.470535 78.624596,164.502014 78.199051,161.963257 
	C77.792534,159.538025 79.604881,158.404968 81.664268,157.877106 
	C83.580734,157.385849 85.553017,157.112350 87.926086,156.703644 
z"/>
<path fill="#000000" opacity="1.000000" stroke="none" 
	d="
M98.174805,141.103760 
	C92.857368,140.100311 87.964905,139.164413 83.060524,138.295837 
	C80.442772,137.832260 77.765434,137.099869 78.246880,133.829575 
	C78.727814,130.562714 81.413940,130.506714 84.112343,131.007050 
	C90.806793,132.248276 97.500679,133.498199 104.215042,134.623779 
	C107.011398,135.092545 109.946381,135.606705 109.376465,139.223404 
	C108.797470,142.897766 105.741364,142.403030 103.020126,141.945404 
	C101.544922,141.697327 100.069916,141.448044 98.174805,141.103760 
z"/>
<path fill="#000000" opacity="1.000000" stroke="none" 
	d="
M171.682465,157.022186 
	C173.725189,157.436661 175.412720,157.580551 176.972443,158.104706 
	C178.828979,158.728577 180.279633,160.037415 179.756744,162.211838 
	C179.276917,164.207199 177.668625,165.410675 175.637848,165.081161 
	C167.609879,163.778580 159.596725,162.371201 151.610336,160.834915 
	C149.454865,160.420303 148.000900,158.886490 148.561172,156.462006 
	C149.181808,153.776352 151.267197,153.319214 153.632843,153.734619 
	C159.517136,154.767929 165.392029,155.854675 171.682465,157.022186 
z"/>
<path fill="#000000" opacity="1.000000" stroke="none" 
	d="
M142.911743,125.811615 
	C140.543915,124.183304 139.773514,122.294983 140.724243,119.982979 
	C141.663910,117.697884 143.717636,116.945099 145.973373,116.886093 
	C149.452118,116.795090 152.943954,116.732658 156.414368,116.932999 
	C159.538834,117.113380 162.086548,118.597755 161.867737,122.087692 
	C161.666260,125.301132 159.199875,126.402733 156.185150,126.328934 
	C151.883362,126.223625 147.581558,126.119339 142.911743,125.811615 
z"/>
<path fill="#000000" opacity="1.000000" stroke="none" 
	d="
M101.384872,126.318291 
	C97.774460,126.146194 95.729759,124.553909 95.960541,121.344566 
	C96.193359,118.106796 98.758766,116.987610 101.652672,116.891090 
	C105.144577,116.774620 108.659180,116.697426 112.135880,116.966301 
	C114.985199,117.186661 117.374214,118.435860 117.248665,121.897682 
	C117.123688,125.343788 114.870071,126.348450 111.835129,126.338356 
	C108.503967,126.327286 105.172760,126.331139 101.384872,126.318291 
z"/>
<path fill="#000000" opacity="1.000000" stroke="none" 
	d="
M135.269287,134.217789 
	C134.822571,135.142288 134.566895,135.782715 134.134781,136.265076 
	C132.344345,138.263748 131.801666,142.360229 128.539093,141.810806 
	C125.097610,141.231216 124.170090,137.206589 122.444611,134.468826 
	C122.079834,133.890045 121.977592,132.596863 122.355438,132.187180 
	C125.005814,129.313553 128.538452,130.995819 131.682281,130.655075 
	C133.837402,130.421494 135.751053,130.949020 135.269287,134.217789 
z"/>
</svg>